# Blender v3.0.0 OBJ File: ''
# www.blender.org
mtllib PKCH.mtl
o Cube
v -1.000000 -1.000000 1.670810
v -1.000000 1.000000 1.670810
v -1.000000 -1.000000 -2.446748
v -1.000000 1.000000 -2.446748
v 1.000000 -1.000000 1.670810
v 1.000000 1.000000 1.670810
v 1.000000 -1.000000 -2.446748
v 1.000000 1.000000 -2.446748
v 0.500000 -1.000000 -2.446748
v -0.166667 0.000000 1.670810
v -0.500000 -1.000000 -2.446748
v -0.500000 1.000000 -2.446748
v 0.166667 0.000000 1.670810
v 0.500000 1.000000 -2.446748
v -0.500000 -1.000000 1.670810
v -0.166667 -0.225352 1.670810
v 0.500000 -1.000000 1.670810
v 0.500000 1.000000 1.670810
v 0.166667 -0.225352 1.670810
v -0.500000 1.000000 1.670810
v -1.000000 -0.225352 1.670810
v -1.000000 0.000000 1.670810
v -1.000000 0.500000 1.670810
v -1.000000 0.500000 -2.446748
v -1.000000 0.000000 -2.446748
v -1.000000 -0.225352 -2.446748
v 1.000000 0.500000 -2.446748
v 1.000000 0.000000 -2.446748
v 1.000000 -0.225352 -2.446748
v 1.000000 0.500000 1.670810
v 1.000000 0.000000 1.670810
v 1.000000 -0.225352 1.670810
v 0.500000 0.500000 1.670810
v 0.500000 0.000000 1.670810
v 0.500000 -0.225352 1.670810
v 0.193293 0.356597 -2.462790
v -0.140040 0.356597 -2.462790
v 0.166667 0.000000 -2.446748
v -0.500000 0.500000 1.670810
v -0.500000 0.000000 1.670810
v -0.500000 -0.225352 1.670810
v -0.500000 0.500000 -2.446748
v -0.500000 0.000000 -2.446748
v -0.500000 -0.225352 -2.446748
v -0.166667 0.000000 -2.446748
v 0.166667 -0.225352 -2.446748
v -0.166667 -0.225352 -2.446748
v 0.500000 0.500000 -2.446748
v 0.500000 0.000000 -2.446748
v 0.500000 -0.225352 -2.446748
v -1.000000 -1.000000 -1.946748
v -1.000000 -1.000000 -1.446748
v -1.000000 -1.000000 0.025716
v -1.000000 1.000000 0.628801
v -1.000000 1.000000 -1.446748
v -1.000000 1.000000 -1.946748
v 1.000000 -1.000000 0.025716
v 1.000000 -1.000000 -1.446748
v 1.000000 -1.000000 -1.946748
v 1.000000 1.000000 -1.946748
v 1.000000 1.000000 -1.446748
v 1.000000 1.000000 0.628801
v 0.500000 1.000000 -1.946748
v 0.500000 1.000000 -1.446748
v 0.738241 1.000000 0.512744
v -0.166667 1.000000 1.670810
v 0.166667 1.000000 1.670810
v 0.166667 -1.000000 1.670810
v -0.500000 1.000000 -1.946748
v -0.500000 1.000000 -1.446748
v -0.738241 1.000000 0.512744
v -0.609086 -1.000000 -2.215759
v -0.609086 -1.000000 -1.606673
v -0.609086 -1.000000 0.187043
v -0.166667 -1.000000 1.670810
v 0.166667 1.000000 -2.446748
v -0.166667 1.000000 -2.446748
v 0.609086 -1.000000 -2.215759
v 0.609086 -1.000000 -1.606673
v 0.609086 -1.000000 0.187043
v 1.000000 -0.225352 -1.946748
v 1.000000 -0.225352 -1.446748
v 1.000000 -0.225352 0.025716
v 1.000000 0.000000 -1.946748
v 1.000000 0.000000 -1.446748
v 1.000000 0.000000 0.025716
v 1.000000 0.500000 -1.946748
v 1.000000 0.500000 -1.446748
v 1.000000 0.500000 0.025716
v -1.000000 -0.225352 0.025716
v -1.000000 -0.225352 -1.446748
v -1.000000 -0.225352 -1.946748
v -1.000000 0.000000 0.025716
v -1.000000 0.000000 -1.446748
v -1.000000 0.000000 -1.946748
v -1.000000 0.500000 0.025716
v -1.000000 0.500000 -1.446748
v -1.000000 0.500000 -1.946748
v -1.000000 -1.000000 0.512858
v 1.000000 1.000000 1.115943
v 0.738241 1.000000 1.232000
v -0.166667 -1.000000 -2.446748
v -0.738241 1.000000 1.232000
v -0.609086 -1.000000 0.780466
v 0.166667 -1.000000 -2.446748
v 0.609086 -1.000000 0.780466
v 1.000000 -0.225352 0.512858
v 1.000000 0.000000 0.512858
v 1.000000 0.500000 0.512858
v -1.000000 1.000000 1.115943
v 1.000000 -1.000000 0.512858
v -1.000000 -0.225352 0.512858
v -1.000000 0.000000 0.512858
v -1.000000 0.500000 0.512858
v 0.166667 0.500000 1.670810
v -0.166667 0.500000 1.670810
v 0.203029 -1.000000 -2.215759
v -0.203029 -1.000000 -2.215759
v 0.203029 -1.000000 -1.606673
v -0.203029 -1.000000 -1.606673
v 0.203029 -1.000000 0.187043
v -0.203029 -1.000000 0.187043
v -0.166667 1.000000 -1.946748
v 0.166667 1.000000 -1.946748
v -0.166667 1.000000 -1.446748
v 0.166667 1.000000 -1.446748
v -0.246080 1.000000 0.512744
v 0.246080 1.000000 0.512744
v 0.203029 -1.000000 0.780466
v -0.203029 -1.000000 0.780466
v -0.246080 1.000000 1.232000
v 0.246080 1.000000 1.232000
v -0.738241 2.448212 0.774486
v -0.246080 2.448212 0.774486
v -0.738241 2.448212 0.055229
v -0.246080 2.448212 0.055229
v 0.246080 2.448212 0.055229
v 0.738241 2.448212 0.055229
v 0.738241 2.448212 0.774486
v 0.246080 2.448212 0.774486
v 0.166667 0.000000 1.909903
v -0.166667 0.000000 1.909903
v 0.166667 -0.225352 1.909903
v -0.166667 -0.225352 1.909903
v 0.609086 -1.494783 0.780466
v 0.203029 -1.494783 0.780466
v 0.609086 -1.494783 0.187043
v 0.203029 -1.494783 0.187043
v -0.609086 -1.494783 -2.215759
v -0.609086 -1.494783 -1.606673
v 0.609086 -1.494783 -1.606673
v 0.203029 -1.494783 -1.606673
v 0.609086 -1.494783 -2.215759
v 0.203029 -1.494783 -2.215759
v -0.203029 -1.494783 -2.215759
v -0.203029 -1.494783 -1.606673
v -0.203029 -1.494783 0.187043
v -0.609086 -1.494783 0.187043
v -0.609086 -1.494783 0.780466
v -0.203029 -1.494783 0.780466
v 0.738241 2.109776 0.881403
v 0.246080 2.109776 0.881403
v 0.246080 2.109776 0.162147
v 0.738241 2.109776 0.162147
v -0.738241 2.109776 0.162147
v -0.246080 2.109776 0.162147
v -0.246080 2.109776 0.881403
v -0.738241 2.109776 0.881403
v -0.081282 0.501615 -3.056972
v 0.252051 0.501615 -3.056972
v -0.054655 0.850780 -2.982786
v 0.278678 0.850780 -2.982786
v -0.204991 0.196364 -3.590578
v 0.128342 0.196364 -3.590578
v -0.178365 0.545528 -3.516393
v 0.154969 0.545528 -3.516393
v -0.118555 0.718760 -4.348234
v 0.214778 0.718760 -4.348234
v -0.091928 1.491442 -4.163961
v 0.241405 1.491442 -4.163961
v -1.000000 -1.000000 -0.766358
v -1.000000 -1.000000 -0.336226
v -1.000000 1.000000 -0.336226
v -1.000000 1.000000 -0.766358
v 1.000000 -1.000000 -0.336226
v 1.000000 -1.000000 -0.766358
v 1.000000 1.000000 -0.766358
v 1.000000 1.000000 -0.336226
v 0.599217 1.000000 -0.766358
v 0.658827 1.000000 -0.336226
v -0.599217 1.000000 -0.766358
v -0.658827 1.000000 -0.336226
v -0.609086 -1.000000 -0.766358
v -0.609086 -1.000000 -0.336226
v 0.609086 -1.000000 -0.766358
v 0.609086 -1.000000 -0.336226
v 1.000000 -0.225352 -0.766358
v 1.000000 -0.225352 -0.336226
v 1.000000 0.000000 -0.766358
v 1.000000 0.000000 -0.336226
v 1.000000 0.500000 -0.766358
v 1.000000 0.500000 -0.336226
v -1.000000 -0.225352 -0.336226
v -1.000000 -0.225352 -0.766358
v -1.000000 0.000000 -0.336226
v -1.000000 0.000000 -0.766358
v -1.000000 0.500000 -0.336226
v -1.000000 0.500000 -0.766358
v 0.199739 1.000000 -0.766358
v 0.219609 1.000000 -0.336226
v -0.199739 1.000000 -0.766358
v -0.219609 1.000000 -0.336226
v -0.203029 -1.000000 -0.766358
v -0.203029 -1.000000 -0.336226
v 0.203029 -1.000000 -0.766358
v 0.203029 -1.000000 -0.336226
v -0.145220 0.557601 -4.114498
v 0.188113 0.557601 -4.114498
v 0.214740 1.199629 -3.964187
v -0.118594 1.199629 -3.964187
vt 0.562500 0.187500
vt 0.625000 0.187500
vt 0.625000 0.250000
vt 0.562500 0.250000
vt 0.562500 0.437500
vt 0.625000 0.437500
vt 0.625000 0.500000
vt 0.562500 0.500000
vt 0.562500 0.718750
vt 0.625000 0.718750
vt 0.625000 0.750000
vt 0.562500 0.750000
vt 0.562500 0.937500
vt 0.625000 0.937500
vt 0.625000 1.000000
vt 0.562500 1.000000
vt 0.312500 0.718750
vt 0.375000 0.718750
vt 0.375000 0.750000
vt 0.312500 0.750000
vt 0.812500 0.718750
vt 0.875000 0.718750
vt 0.875000 0.750000
vt 0.812500 0.750000
vt 0.687500 0.718750
vt 0.687500 0.750000
vt 0.229167 0.718750
vt 0.229167 0.750000
vt 0.187500 0.750000
vt 0.187500 0.718750
vt 0.625000 0.312500
vt 0.625000 0.354167
vt 0.562500 0.354167
vt 0.562500 0.312500
vt 0.125000 0.718750
vt 0.125000 0.750000
vt 0.375000 0.895833
vt 0.471831 0.895833
vt 0.471831 0.937500
vt 0.375000 0.937500
vt 0.625000 0.812500
vt 0.562500 0.812500
vt 0.312500 0.625000
vt 0.270833 0.625000
vt 0.270833 0.625000
vt 0.312500 0.625000
vt 0.500000 0.395833
vt 0.562500 0.395833
vt 0.500000 0.437500
vt 0.729167 0.687500
vt 0.770833 0.687500
vt 0.770833 0.718750
vt 0.729167 0.718750
vt 0.625000 0.895833
vt 0.562500 0.895833
vt 0.770833 0.500000
vt 0.812500 0.500000
vt 0.812500 0.562500
vt 0.770833 0.562500
vt 0.471831 0.395833
vt 0.471831 0.437500
vt 0.229167 0.562500
vt 0.270833 0.562500
vt 0.229167 0.625000
vt 0.375000 0.250000
vt 0.471831 0.250000
vt 0.471831 0.312500
vt 0.375000 0.312500
vt 0.500000 0.250000
vt 0.500000 0.312500
vt 0.375000 0.395833
vt 0.375000 0.437500
vt 0.625000 0.395833
vt 0.500000 0.895833
vt 0.500000 0.937500
vt 0.471831 0.812500
vt 0.500000 0.812500
vt 0.500000 0.854167
vt 0.471831 0.854167
vt 0.187500 0.666667
vt 0.229167 0.666667
vt 0.229167 0.687500
vt 0.187500 0.687500
vt 0.270833 0.666667
vt 0.270833 0.687500
vt 0.471831 0.750000
vt 0.375000 0.812500
vt 0.500000 0.750000
vt 0.471831 1.000000
vt 0.375000 1.000000
vt 0.500000 1.000000
vt 0.471831 0.718750
vt 0.500000 0.718750
vt 0.471831 0.500000
vt 0.375000 0.500000
vt 0.500000 0.500000
vt 0.375000 0.187500
vt 0.471831 0.187500
vt 0.500000 0.187500
vt 0.500000 0.031250
vt 0.562500 0.031250
vt 0.562500 0.062500
vt 0.500000 0.062500
vt 0.500000 0.098971
vt 0.562500 0.098971
vt 0.562500 0.125000
vt 0.500000 0.125000
vt 0.471831 0.031250
vt 0.471831 0.062500
vt 0.471831 0.098971
vt 0.471831 0.125000
vt 0.375000 0.031250
vt 0.375000 0.062500
vt 0.375000 0.098971
vt 0.375000 0.125000
vt 0.562500 0.562500
vt 0.500000 0.562500
vt 0.562500 0.625000
vt 0.500000 0.625000
vt 0.500000 0.666667
vt 0.562500 0.666667
vt 0.562500 0.687500
vt 0.500000 0.687500
vt 0.471831 0.562500
vt 0.471831 0.625000
vt 0.471831 0.666667
vt 0.471831 0.687500
vt 0.375000 0.562500
vt 0.375000 0.625000
vt 0.375000 0.666667
vt 0.375000 0.687500
vt 0.187500 0.718750
vt 0.229167 0.718750
vt 0.312500 0.666667
vt 0.312500 0.687500
vt 0.229167 0.500000
vt 0.270833 0.500000
vt 0.187500 0.500000
vt 0.187500 0.562500
vt 0.270833 0.718750
vt 0.125000 0.500000
vt 0.125000 0.562500
vt 0.187500 0.625000
vt 0.125000 0.625000
vt 0.125000 0.666667
vt 0.125000 0.687500
vt 0.770833 0.666667
vt 0.812500 0.666667
vt 0.812500 0.687500
vt 0.312500 0.500000
vt 0.312500 0.562500
vt 0.729167 0.666667
vt 0.687500 0.666667
vt 0.687500 0.687500
vt 0.687500 0.500000
vt 0.687500 0.562500
vt 0.625000 0.562500
vt 0.625000 0.666667
vt 0.625000 0.687500
vt 0.875000 0.500000
vt 0.875000 0.562500
vt 0.875000 0.666667
vt 0.875000 0.687500
vt 0.625000 0.031250
vt 0.625000 0.062500
vt 0.625000 0.098971
vt 0.625000 0.125000
vt 0.562500 0.000000
vt 0.625000 0.000000
vt 0.375000 0.000000
vt 0.471831 0.000000
vt 0.500000 0.000000
vt 0.770833 0.750000
vt 0.729167 0.750000
vt 0.229167 0.625000
vt 0.229167 0.562500
vt 0.312500 0.687500
vt 0.270833 0.687500
vt 0.471831 0.354167
vt 0.375000 0.354167
vt 0.500000 0.354167
vt 0.729167 0.500000
vt 0.729167 0.562500
vt 0.625000 0.854167
vt 0.562500 0.854167
vt 0.375000 0.854167
vt 0.270833 0.750000
vt 0.187500 0.562500
vt 0.187500 0.625000
vt 0.270833 0.562500
vt 0.312500 0.562500
vt 0.312500 0.718750
vt 0.270833 0.718750
vt 0.187500 0.687500
vt 0.229167 0.687500
vt 0.562500 0.354167
vt 0.500000 0.354167
vt 0.729167 0.718750
vt 0.729167 0.687500
vt 0.687500 0.687500
vt 0.687500 0.718750
vt 0.812500 0.718750
vt 0.812500 0.687500
vt 0.770833 0.687500
vt 0.770833 0.718750
vt 0.562500 0.354167
vt 0.500000 0.354167
vt 0.562500 0.395833
vt 0.500000 0.395833
vt 0.500000 0.395833
vt 0.562500 0.395833
vt 0.625000 0.083333
vt 0.562500 0.083333
vt 0.625000 0.625000
vt 0.625000 0.651029
vt 0.562500 0.651029
vt 0.375000 0.651029
vt 0.312500 0.651029
vt 0.812500 0.625000
vt 0.875000 0.625000
vt 0.875000 0.651029
vt 0.812500 0.651029
vt 0.687500 0.625000
vt 0.687500 0.651029
vt 0.729167 0.625000
vt 0.729167 0.651029
vt 0.770833 0.625000
vt 0.770833 0.651029
vt 0.187500 0.651029
vt 0.125000 0.651029
vt 0.270833 0.651029
vt 0.471831 0.651029
vt 0.500000 0.651029
vt 0.471831 0.083333
vt 0.375000 0.083333
vt 0.500000 0.083333
vt 0.229167 0.651029
vt 0.562500 0.354167
vt 0.500000 0.354167
vt 0.562500 0.395833
vt 0.500000 0.395833
vt 0.471831 0.895833
vt 0.500000 0.895833
vt 0.812500 0.687500
vt 0.770833 0.687500
vt 0.687500 0.718750
vt 0.729167 0.718750
vt 0.687500 0.687500
vt 0.729167 0.687500
vt 0.812500 0.718750
vt 0.770833 0.718750
vt 0.471831 0.854167
vt 0.500000 0.854167
vt 0.500000 0.354167
vt 0.500000 0.395833
vt 0.562500 0.354167
vt 0.562500 0.395833
vn -1.0000 0.0000 0.0000
vn 0.0000 0.0000 -1.0000
vn 1.0000 0.0000 0.0000
vn 0.0000 0.0000 1.0000
vn 0.0000 -1.0000 0.0000
vn 0.0000 1.0000 0.0000
vn -0.0203 0.0136 -0.9997
vn 0.0294 -0.0196 -0.9994
vn 0.0218 0.0145 -0.9997
vn 0.0000 0.0249 -0.9997
vn -0.0268 -0.0179 -0.9995
vn -0.9936 0.0814 -0.0784
vn 0.0000 -0.3012 -0.9535
vn 0.0000 0.3012 0.9535
vn -0.9774 0.0300 0.2094
vn 0.0000 0.7249 0.6889
vn 0.9936 -0.0814 0.0784
vn 0.0000 -0.7725 -0.6350
vn 0.0000 -0.8680 0.4965
vn 0.9774 -0.0300 -0.2094
vn 0.0000 0.8680 -0.4965
vn -0.9964 0.0657 -0.0539
vn 0.0000 0.5649 0.8252
vn 0.9964 -0.0657 0.0539
vn 0.0000 -0.8233 -0.5676
vn 0.0000 0.2320 -0.9727
vn 0.9963 -0.0533 0.0669
vn -0.9963 0.0533 -0.0669
usemtl Material.001
s off
f 98/1/1 56/2/1 4/3/1 24/4/1
f 48/5/2 14/6/2 8/7/2 27/8/2
f 109/9/3 100/10/3 6/11/3 30/12/3
f 39/13/4 20/14/4 2/15/4 23/16/4
f 106/17/5 111/18/5 5/19/5 17/20/5
f 103/21/6 110/22/6 2/23/6 20/24/6
f 100/10/6 101/25/6 18/26/6 6/11/6
f 130/27/5 75/28/5 15/29/5 104/30/5
f 12/31/7 77/32/7 37/33/7 42/34/7
f 99/35/5 104/30/5 15/29/5 1/36/5
f 75/37/4 16/38/4 41/39/4 15/40/4
f 30/12/4 6/11/4 18/41/4 33/42/4
f 79/43/4 119/44/4 152/45/4 151/46/4
f 24/4/2 4/3/2 12/31/2 42/34/2
f 38/47/8 36/48/8 48/5/8 49/49/8
f 128/50/6 127/51/6 131/52/6 132/53/6
f 66/54/4 20/14/4 39/13/4 116/55/4
f 77/56/6 12/57/6 69/58/6 123/59/6
f 46/60/2 38/47/2 49/49/2 50/61/2
f 118/62/5 117/63/5 119/44/5 120/64/5
f 3/65/2 26/66/2 44/67/2 11/68/2
f 26/66/2 25/69/2 43/70/2 44/67/2
f 25/69/2 24/4/2 42/34/2 43/70/2
f 105/71/2 46/60/2 50/61/2 9/72/2
f 76/73/9 14/6/9 48/5/9 36/48/9
f 16/38/4 10/74/4 40/75/4 41/39/4
f 35/76/4 34/77/4 13/78/4 19/79/4
f 194/80/5 214/81/5 122/82/5 74/83/5
f 214/81/5 216/84/5 121/85/5 122/82/5
f 5/19/4 32/86/4 35/76/4 17/87/4
f 31/88/4 30/12/4 33/42/4 34/77/4
f 15/40/4 41/39/4 21/89/4 1/90/4
f 40/75/4 39/13/4 23/16/4 22/91/4
f 111/18/3 107/92/3 32/86/3 5/19/3
f 107/92/3 108/93/3 31/88/3 32/86/3
f 108/93/3 109/9/3 30/12/3 31/88/3
f 9/72/2 50/61/2 29/94/2 7/95/2
f 50/61/2 49/49/2 28/96/2 29/94/2
f 49/49/2 48/5/2 27/8/2 28/96/2
f 51/97/1 92/98/1 26/66/1 3/65/1
f 92/98/1 95/99/1 25/69/1 26/66/1
f 95/99/1 98/1/1 24/4/1 25/69/1
f 113/100/1 114/101/1 96/102/1 93/103/1
f 206/104/1 208/105/1 97/106/1 94/107/1
f 94/107/1 97/106/1 98/1/1 95/99/1
f 112/108/1 113/100/1 93/103/1 90/109/1
f 204/110/1 206/104/1 94/107/1 91/111/1
f 91/111/1 94/107/1 95/99/1 92/98/1
f 99/112/1 112/108/1 90/109/1 53/113/1
f 181/114/1 204/110/1 91/111/1 52/115/1
f 52/115/1 91/111/1 92/98/1 51/97/1
f 28/96/3 27/8/3 87/116/3 84/117/3
f 84/117/3 87/116/3 88/118/3 85/119/3
f 200/120/3 202/121/3 89/122/3 86/123/3
f 29/94/3 28/96/3 84/117/3 81/124/3
f 81/124/3 84/117/3 85/119/3 82/125/3
f 198/126/3 200/120/3 86/123/3 83/127/3
f 7/95/3 29/94/3 81/124/3 59/128/3
f 59/128/3 81/124/3 82/125/3 58/129/3
f 185/130/3 198/126/3 83/127/3 57/131/3
f 130/27/4 104/30/4 159/132/4 160/133/4
f 216/84/5 196/134/5 80/135/5 121/85/5
f 102/136/5 105/137/5 117/63/5 118/62/5
f 11/138/5 102/136/5 118/62/5 72/139/5
f 122/82/5 121/85/5 129/140/5 130/27/5
f 3/141/5 11/138/5 72/139/5 51/142/5
f 51/142/5 72/139/5 73/143/5 52/144/5
f 182/145/5 194/80/5 74/83/5 53/146/5
f 212/147/6 192/148/6 71/149/6 127/51/6
f 105/137/5 9/150/5 78/151/5 117/63/5
f 210/152/6 212/147/6 127/51/6 128/50/6
f 190/153/6 210/152/6 128/50/6 65/154/6
f 8/7/6 14/155/6 63/156/6 60/157/6
f 188/158/6 190/153/6 65/154/6 62/159/6
f 12/57/6 4/160/6 56/161/6 69/58/6
f 192/148/6 183/162/6 54/163/6 71/149/6
f 9/150/5 7/95/5 59/128/5 78/151/5
f 78/151/5 59/128/5 58/129/5 79/43/5
f 196/134/5 185/130/5 57/131/5 80/135/5
f 27/8/3 8/7/3 60/157/3 87/116/3
f 202/121/3 188/158/3 62/159/3 89/122/3
f 114/101/1 110/164/1 54/165/1 96/102/1
f 208/105/1 184/166/1 55/167/1 97/106/1
f 23/168/1 2/169/1 110/164/1 114/101/1
f 1/170/1 21/171/1 112/108/1 99/112/1
f 21/171/1 22/172/1 113/100/1 112/108/1
f 22/172/1 23/168/1 114/101/1 113/100/1
f 86/123/3 89/122/3 109/9/3 108/93/3
f 83/127/3 86/123/3 108/93/3 107/92/3
f 57/131/3 83/127/3 107/92/3 111/18/3
f 103/21/6 20/24/6 66/173/6 131/52/6
f 131/52/6 66/173/6 67/174/6 132/53/6
f 53/146/5 74/83/5 104/30/5 99/35/5
f 118/62/3 120/64/3 156/175/3 155/176/3
f 121/85/2 80/135/2 147/177/2 148/178/2
f 62/159/6 65/154/6 101/25/6 100/10/6
f 71/149/6 54/163/6 110/22/6 103/21/6
f 80/135/5 57/131/5 111/18/5 106/17/5
f 89/122/3 62/159/3 100/10/3 109/9/3
f 132/53/6 67/174/6 18/26/6 101/25/6
f 77/32/10 76/73/10 36/48/10 37/33/10
f 11/68/2 44/67/2 47/179/2 102/180/2
f 102/180/2 47/179/2 46/60/2 105/71/2
f 44/67/2 43/70/2 45/181/2 47/179/2
f 47/179/2 45/181/2 38/47/2 46/60/2
f 14/155/6 76/182/6 124/183/6 63/156/6
f 76/182/6 77/56/6 123/59/6 124/183/6
f 18/41/4 67/184/4 115/185/4 33/42/4
f 67/184/4 66/54/4 116/55/4 115/185/4
f 43/70/11 42/34/11 37/33/11 45/181/11
f 13/78/4 115/185/4 116/55/4 10/74/4
f 17/87/4 35/76/4 19/79/4 68/186/4
f 68/186/4 19/79/4 16/38/4 75/37/4
f 106/17/5 17/20/5 68/187/5 129/140/5
f 129/140/5 68/187/5 75/28/5 130/27/5
f 149/188/5 155/176/5 156/175/5 150/189/5
f 154/190/5 153/191/5 151/46/5 152/45/5
f 148/178/5 147/177/5 145/192/5 146/193/5
f 158/194/5 157/195/5 160/133/5 159/132/5
f 119/44/1 117/63/1 154/190/1 152/45/1
f 72/139/2 118/62/2 155/176/2 149/188/2
f 120/64/4 73/143/4 150/189/4 156/175/4
f 117/63/2 78/151/2 153/191/2 154/190/2
f 122/82/3 130/27/3 160/133/3 157/195/3
f 74/83/2 122/82/2 157/195/2 158/194/2
f 106/17/4 129/140/4 146/193/4 145/192/4
f 104/30/1 74/83/1 158/194/1 159/132/1
f 129/140/1 121/85/1 148/178/1 146/193/1
f 78/151/3 79/43/3 151/46/3 153/191/3
f 80/135/3 106/17/3 145/192/3 147/177/3
f 73/143/1 72/139/1 149/188/1 150/189/1
f 45/181/12 37/33/12 171/196/12 169/197/12
f 128/50/1 132/53/1 162/198/1 163/199/1
f 101/25/3 65/154/3 164/200/3 161/201/3
f 65/154/13 128/50/13 163/199/13 164/200/13
f 132/53/14 101/25/14 161/201/14 162/198/14
f 71/149/1 103/21/1 168/202/1 165/203/1
f 131/52/3 127/51/3 166/204/3 167/205/3
f 103/21/14 131/52/14 167/205/14 168/202/14
f 127/51/13 71/149/13 165/203/13 166/204/13
f 169/197/15 171/196/15 175/206/15 173/207/15
f 37/33/16 36/48/16 172/208/16 171/196/16
f 36/48/17 38/47/17 170/209/17 172/208/17
f 38/47/18 45/181/18 169/197/18 170/209/18
f 170/209/19 169/197/19 173/207/19 174/210/19
f 172/208/20 170/209/20 174/210/20 176/211/20
f 171/196/21 172/208/21 176/211/21 175/206/21
f 96/102/1 54/165/1 183/212/1 207/213/1
f 88/118/3 61/214/3 187/215/3 201/216/3
f 79/43/5 58/129/5 186/217/5 195/218/5
f 195/218/5 186/217/5 185/130/5 196/134/5
f 70/219/6 55/220/6 184/221/6 191/222/6
f 61/214/6 64/223/6 189/224/6 187/215/6
f 64/223/6 126/225/6 209/226/6 189/224/6
f 126/225/6 125/227/6 211/228/6 209/226/6
f 125/227/6 70/219/6 191/222/6 211/228/6
f 52/144/5 73/143/5 193/229/5 181/230/5
f 181/230/5 193/229/5 194/80/5 182/145/5
f 119/44/5 79/43/5 195/218/5 215/231/5
f 215/231/5 195/218/5 196/134/5 216/84/5
f 58/129/3 82/125/3 197/232/3 186/217/3
f 186/217/3 197/232/3 198/126/3 185/130/3
f 82/125/3 85/119/3 199/233/3 197/232/3
f 197/232/3 199/233/3 200/120/3 198/126/3
f 85/119/3 88/118/3 201/216/3 199/233/3
f 199/233/3 201/216/3 202/121/3 200/120/3
f 53/113/1 90/109/1 203/234/1 182/235/1
f 182/235/1 203/234/1 204/110/1 181/114/1
f 90/109/1 93/103/1 205/236/1 203/234/1
f 203/234/1 205/236/1 206/104/1 204/110/1
f 93/103/1 96/102/1 207/213/1 205/236/1
f 205/236/1 207/213/1 208/105/1 206/104/1
f 120/64/5 119/44/5 215/231/5 213/237/5
f 213/237/5 215/231/5 216/84/5 214/81/5
f 73/143/5 120/64/5 213/237/5 193/229/5
f 193/229/5 213/237/5 214/81/5 194/80/5
f 173/207/22 175/206/22 220/238/22 217/239/22
f 175/206/23 176/211/23 219/240/23 220/238/23
f 176/211/24 174/210/24 218/241/24 219/240/24
f 174/210/25 173/207/25 217/239/25 218/241/25
usemtl Material.002
f 10/74/1 16/38/1 144/242/1 142/243/1
f 10/74/4 116/55/4 39/13/4 40/75/4
f 124/183/6 123/59/6 125/227/6 126/225/6
f 166/204/13 165/203/13 135/244/13 136/245/13
f 162/198/14 161/201/14 139/246/14 140/247/14
f 123/59/6 69/58/6 70/219/6 125/227/6
f 63/156/6 124/183/6 126/225/6 64/223/6
f 60/157/6 63/156/6 64/223/6 61/214/6
f 69/58/6 56/161/6 55/220/6 70/219/6
f 87/116/3 60/157/3 61/214/3 88/118/3
f 97/106/1 55/167/1 56/2/1 98/1/1
f 34/77/4 33/42/4 115/185/4 13/78/4
f 138/248/6 137/249/6 140/247/6 139/246/6
f 136/245/6 135/244/6 133/250/6 134/251/6
f 168/202/14 167/205/14 134/251/14 133/250/14
f 167/205/3 166/204/3 136/245/3 134/251/3
f 164/200/13 163/199/13 137/249/13 138/248/13
f 165/203/1 168/202/1 133/250/1 135/244/1
f 161/201/3 164/200/3 138/248/3 139/246/3
f 163/199/1 162/198/1 140/247/1 137/249/1
f 143/252/4 141/253/4 142/243/4 144/242/4
f 16/38/5 19/79/5 143/252/5 144/242/5
f 13/78/6 10/74/6 142/243/6 141/253/6
f 19/79/3 13/78/3 141/253/3 143/252/3
f 218/241/25 217/239/25 177/254/25 178/255/25
f 178/255/26 177/254/26 179/256/26 180/257/26
f 219/240/27 218/241/27 178/255/27 180/257/27
f 220/238/23 219/240/23 180/257/23 179/256/23
f 217/239/28 220/238/28 179/256/28 177/254/28
f 207/213/1 183/212/1 184/166/1 208/105/1
f 201/216/3 187/215/3 188/158/3 202/121/3
f 191/222/6 184/221/6 183/162/6 192/148/6
f 187/215/6 189/224/6 190/153/6 188/158/6
f 189/224/6 209/226/6 210/152/6 190/153/6
f 209/226/6 211/228/6 212/147/6 210/152/6
f 211/228/6 191/222/6 192/148/6 212/147/6
usemtl Material.003
f 32/86/4 31/88/4 34/77/4 35/76/4
f 41/39/4 40/75/4 22/91/4 21/89/4
